<svg xmlns="http://www.w3.org/2000/svg" viewBox="0 0 394 478">
  <path d="M255.45,102.74a337.38,337.38,0,0,0-26.14,27.79,62.86,62.86,0,0,0-14.53,40.22v27.88H178V171a62.61,62.61,0,0,0-14.44-40.12,337,337,0,0,0-25.87-27.48c-34.51-33-25.95-72.25-25.95-72.25,22.41,6.48,40,18.43,57.21,44.24,16.58,24.82,24.28,58.73,26.53,70.22.5,2.55,1.67,2.12,2.08,0,2.07-10.78,9.73-45.58,26.65-70.9C241.42,48.9,259,37,281.4,30.48,281.4,30.48,289.94,69.7,255.45,102.74Z"/>
  <path d="M208,434.05c24.65,17.47,62.87,13.47,62.87,13.47,44.92.42,89.84-78.83,92.39-160.2,2.35-75.51-37.3-125.87-78.83-136-25.75-6.3-53.29,1.73-70.5,8.74a45.64,45.64,0,0,1-34.45,0c-17.22-7-44.76-15-70.5-8.74-41.54,10.17-81.19,60.53-78.83,136,2.54,81.37,47.46,160.62,92.39,160.2,0,0,38.21,4,62.87-13.47A19.55,19.55,0,0,1,208,434.05Z"/>
</svg>
