<svg width="176" height="209" viewBox="0 0 176 209" fill="none" xmlns="http://www.w3.org/2000/svg">
<path d="M75 170C48 140 109.722 180.309 169 208C77.3765 113.994 85.3391 91.0556 175 88C155.173 -5.00765 143.816 -22.0857 123 29C97.5957 100.058 82.7596 104.701 55 36C13.8301 31.6688 56.5 84 21 88C-14.5 92 0.499989 178.5 48 129C95.5 79.5 75 170 75 170Z" stroke="black"/>
<path d="M41.5 114C41.5 120.298 35.7367 125.5 28.5 125.5C21.2633 125.5 15.5 120.298 15.5 114C15.5 107.702 21.2633 102.5 28.5 102.5C35.7367 102.5 41.5 107.702 41.5 114Z" stroke="black"/>
<path d="M154.5 39C154.5 45.2975 148.737 50.5 141.5 50.5C134.263 50.5 128.5 45.2975 128.5 39C128.5 32.7025 134.263 27.5 141.5 27.5C148.737 27.5 154.5 32.7025 154.5 39Z" stroke="black"/>
<path d="M111.5 153C111.5 159.298 105.737 164.5 98.5 164.5C91.2633 164.5 85.5 159.298 85.5 153C85.5 146.702 91.2633 141.5 98.5 141.5C105.737 141.5 111.5 146.702 111.5 153Z" stroke="black"/>
</svg>
