<svg width="174" height="208" viewBox="0 0 174 208" fill="none" xmlns="http://www.w3.org/2000/svg">
<path d="M159.959 32.5038C164.096 46.2495 168.481 64.5463 173.387 87.521C151.253 88.3002 134.083 90.308 122.191 94.346C110.188 98.4221 103.421 104.624 102.521 113.845C101.629 122.972 106.522 134.88 117.265 150.307C127.724 165.325 143.797 183.773 165.727 206.38C147.821 197.921 129.805 188.416 114.184 180.144C113.615 179.843 113.049 179.544 112.487 179.246C97.1465 171.122 84.2343 164.284 76.2564 161.001C77.1728 155.687 78.1954 148.662 78.6539 141.671C79.1231 134.518 79.0061 127.346 77.55 122.072C76.8218 119.435 75.7454 117.222 74.193 115.73C72.6211 114.219 70.5946 113.482 68.0679 113.751C65.5664 114.017 62.5935 115.267 59.07 117.67C55.5413 120.077 51.4274 123.664 46.6392 128.654C34.8036 140.988 25.1157 144.717 17.8294 143.545C10.5578 142.376 5.44486 136.284 2.84989 128.406C0.257758 120.537 0.229183 111.011 3.03293 103.224C5.83267 95.4479 11.4237 89.4695 20.056 88.4969C24.5579 87.9896 27.8695 86.7106 30.2725 84.8336C32.6797 82.9532 34.1366 80.5027 34.9781 77.7233C36.5364 72.5764 35.9979 66.225 35.4815 60.1338C35.4447 59.6992 35.4079 59.2659 35.3721 58.8344C35.101 55.5724 34.8773 52.4069 35.0098 49.518C35.1423 46.6276 35.6301 44.0578 36.7515 41.9721C37.8641 39.9027 39.6157 38.2803 42.3443 37.2972C45.0357 36.3275 48.6956 35.974 53.6494 36.4667C60.5456 53.5059 66.6594 66.0488 72.3543 74.169C78.0547 82.2972 83.4652 86.176 88.9529 85.4047C91.6825 85.021 94.3456 83.4925 96.989 80.9139C99.6322 78.3355 102.284 74.6801 104.994 69.9823C110.414 60.5889 116.116 46.9435 122.467 29.1786C127.672 16.4073 132.25 7.99455 136.465 3.94846C138.564 1.93349 140.506 1.06606 142.338 1.19348C144.176 1.32119 146.049 2.45795 147.987 4.78495C151.874 9.45249 155.78 18.6176 159.959 32.5038ZM74.0171 167.511C73.9005 168.082 73.8001 168.561 73.7202 168.936C71.5902 166.53 70.0884 164.626 69.15 163.17C68.6338 162.368 68.3004 161.721 68.1233 161.214C67.9418 160.694 67.9505 160.394 68.0084 160.238C68.051 160.123 68.1496 160.005 68.4521 159.937C68.7726 159.864 69.2546 159.867 69.9214 159.977C71.177 160.186 72.9283 160.747 75.1327 161.625C74.7061 164.05 74.3105 166.073 74.0171 167.511ZM40.5 114C40.5 120.298 34.7367 125.5 27.5 125.5C20.2633 125.5 14.5 120.298 14.5 114C14.5 107.702 20.2633 102.5 27.5 102.5C34.7367 102.5 40.5 107.702 40.5 114ZM27.5 126.5C35.175 126.5 41.5 120.957 41.5 114C41.5 107.043 35.175 101.5 27.5 101.5C19.825 101.5 13.5 107.043 13.5 114C13.5 120.957 19.825 126.5 27.5 126.5ZM153.5 39C153.5 45.2975 147.737 50.5 140.5 50.5C133.263 50.5 127.5 45.2975 127.5 39C127.5 32.7025 133.263 27.5 140.5 27.5C147.737 27.5 153.5 32.7025 153.5 39ZM140.5 51.5C148.175 51.5 154.5 45.9573 154.5 39C154.5 32.0427 148.175 26.5 140.5 26.5C132.825 26.5 126.5 32.0427 126.5 39C126.5 45.9573 132.825 51.5 140.5 51.5ZM110.5 153C110.5 159.298 104.737 164.5 97.5 164.5C90.2633 164.5 84.5 159.298 84.5 153C84.5 146.702 90.2633 141.5 97.5 141.5C104.737 141.5 110.5 146.702 110.5 153ZM97.5 165.5C105.175 165.5 111.5 159.957 111.5 153C111.5 146.043 105.175 140.5 97.5 140.5C89.825 140.5 83.5 146.043 83.5 153C83.5 159.957 89.825 165.5 97.5 165.5Z" stroke="black"/>
</svg>
